General
Complete name                    : Eagle Eye.mkv
Format                           : Matroska
File size                        : 1.26 GiB
Duration                         : 1h 52mn
Overall bit rate                 : 1 597 Kbps


Video
ID                               : 1
Format                           : AVC
Duration                         : 1h 52mn
Bit rate                         : 1 118 Kbps
Width                            : 720 pixels
Height                           : 428 pixels
Display aspect ratio             : 2.35:1
Original display aspect ratio    : 2.35:1
Frame rate                       : 25.000 fps
Resolution                       : 8 bits
Colorimetry                      : 4:2:0
Scan type                        : Progressive
Bits/(Pixel*Frame)               : 0.145
Stream size                      : 901 MiB (70%)
Writing library                  : x264 core 79

Audio
ID                               : 2
Format                           : AC-3
Format/Info                      : Audio Coding 3
Codec ID                         : A_AC3
Duration                         : 1h 52mn
Bit rate mode                    : Constant
Bit rate                         : 448 Kbps
Channel(s)                       : 6 channels
Channel positions                : Front: L C R, Surround: L R, LFE
Sampling rate                    : 48.0 KHz
Stream size                      : 361 MiB (28%)
Language                         : English

Text #1
Language                         : Danish

Text #2
Language                         : English

Text #3
Language                         : Dutch

Text #4
Language                         : Norwegian

Text #5
Language                         : Finnish

Text #6
Language                         : Swedish

Text #7
Language                         : English

Menu
00:00:00.000                     : Chapter 


